<?xml version="1.0" standalone="no"?>
<!DOCTYPE svg PUBLIC "-//W3C//DTD SVG 20010904//EN"
 "http://www.w3.org/TR/2001/REC-SVG-20010904/DTD/svg10.dtd">
<svg version="1.0" xmlns="http://www.w3.org/2000/svg"
 width="1024.000000pt" height="605.000000pt" viewBox="0 0 1024.000000 605.000000"
 preserveAspectRatio="xMidYMid meet">
<metadata>
Created by potrace 1.16, written by Peter Selinger 2001-2019
</metadata>
<g transform="translate(0.000000,605.000000) scale(0.100000,-0.100000)"
fill="#000000" stroke="none">
<path d="M0 3025 l0 -3025 5115 0 5115 0 -2 3023 -3 3022 -5112 3 -5113 2 0
-3025z m7573 392 c18 -8 45 -33 61 -55 16 -23 34 -42 41 -42 24 0 41 -158 20
-187 -11 -15 -10 -24 7 -55 33 -57 15 -75 -69 -70 -13 0 -23 -3 -23 -8 0 -5
10 -10 23 -12 18 -2 22 -9 20 -33 -1 -17 -12 -38 -24 -47 -28 -23 -95 -23
-133 0 l-30 18 -23 -46 c-34 -66 -30 -83 30 -140 28 -27 55 -50 59 -50 4 0 38
20 74 45 37 25 69 44 72 41 2 -3 18 6 34 19 44 37 112 30 145 -14 6 -9 17 -44
23 -78 13 -68 30 -75 30 -13 0 22 12 124 26 227 15 104 27 199 26 213 0 32 15
50 43 50 13 0 52 13 87 30 72 34 84 36 92 15 3 -8 12 -15 20 -15 19 0 26 -22
26 -80 0 -27 4 -51 9 -54 16 -11 18 -54 5 -157 -7 -57 -13 -135 -14 -172 0
-51 -4 -69 -15 -73 -8 -4 -15 -14 -15 -23 0 -10 -11 -23 -25 -29 -14 -6 -25
-16 -25 -22 0 -5 -9 -10 -21 -10 -12 0 -19 -5 -16 -12 3 -9 26 -12 81 -10 61
3 76 0 76 -11 0 -16 -77 -27 -186 -27 l-64 0 0 -110 c0 -87 -3 -110 -14 -110
-10 0 -15 22 -20 88 -3 48 -5 95 -4 106 3 17 -9 19 -171 23 -105 3 -171 1
-168 -4 20 -32 5 -191 -18 -192 -12 -1 -12 44 -1 109 5 32 3 50 -6 63 -12 17
-19 17 -62 6 -51 -13 -47 -29 8 -29 l29 0 -7 -82 c-7 -82 -16 -106 -34 -94 -5
3 -6 27 0 62 5 32 7 65 5 73 -3 9 -5 4 -6 -11 0 -16 -10 -37 -21 -48 -11 -11
-23 -34 -27 -50 -7 -37 -33 -40 -33 -5 0 34 -13 31 -27 -6 -14 -36 -36 -30
-27 7 6 25 5 25 -32 19 -22 -4 -44 -13 -50 -21 -17 -21 -37 -17 -31 6 5 18 0
20 -39 20 -31 0 -44 4 -44 14 0 11 -12 14 -47 13 -38 -2 -49 2 -58 18 -5 11
-24 34 -41 50 -25 24 -34 45 -43 96 -38 222 17 417 128 450 46 14 94 -7 119
-52 10 -16 19 -29 22 -29 3 0 22 17 44 37 30 28 40 45 43 77 5 39 3 42 -28 56
-28 12 -34 21 -34 45 0 25 5 32 33 40 22 6 31 14 27 24 -3 7 -10 43 -15 79
-14 102 11 140 100 155 49 8 71 7 103 -6z m-803 -558 c0 -256 -4 -289 -33
-260 -17 17 -22 444 -7 501 9 34 14 39 26 30 11 -10 14 -58 14 -271z m120 3
c0 -254 -7 -307 -36 -267 -19 26 -20 515 -2 533 10 10 15 9 25 -5 10 -12 13
-80 13 -261z m-4621 257 c31 -11 32 -13 26 -53 -4 -22 -8 -42 -10 -44 -1 -1
-16 3 -34 9 -18 6 -53 9 -77 6 -81 -9 -124 -71 -124 -177 0 -106 43 -168 124
-177 24 -3 59 0 77 6 18 6 33 10 34 9 1 -2 5 -22 9 -45 6 -39 5 -42 -26 -52
-50 -18 -144 -14 -187 8 -49 26 -94 77 -116 135 -24 63 -17 204 12 261 24 45
63 85 108 108 35 19 138 22 184 6z m379 -8 c85 -44 126 -125 127 -251 0 -91
-22 -159 -68 -208 -77 -83 -227 -83 -304 0 -46 49 -68 117 -68 208 0 126 43
209 130 254 42 22 137 21 183 -3z m2360 8 c31 -10 32 -13 26 -52 -4 -23 -8
-43 -9 -45 -1 -1 -16 3 -34 9 -18 6 -53 9 -77 6 -81 -9 -124 -71 -124 -177 0
-106 43 -168 124 -177 24 -3 59 0 77 6 18 6 33 10 34 9 1 -2 5 -22 9 -45 6
-39 5 -42 -26 -52 -38 -14 -138 -14 -172 -1 -44 16 -103 78 -126 132 -26 61
-31 159 -11 231 16 54 74 126 123 150 38 19 140 22 186 6z m1532 -3 c34 -13
35 -15 32 -57 -2 -24 -5 -45 -7 -47 -2 -2 -24 4 -49 12 -62 21 -109 20 -137
-3 -20 -16 -22 -23 -14 -47 8 -21 30 -39 90 -70 111 -60 135 -88 135 -163 0
-50 -4 -65 -26 -91 -15 -17 -39 -37 -55 -45 -35 -18 -160 -19 -209 -1 -34 13
-35 14 -31 62 1 27 4 50 6 52 2 2 17 -4 34 -12 38 -20 111 -31 146 -22 15 4
30 17 36 33 14 38 -9 65 -92 109 -120 63 -156 118 -129 198 14 43 61 93 93 99
46 9 143 5 177 -7z m-3432 -11 c20 -9 47 -26 60 -38 98 -91 98 -323 0 -414
-44 -41 -90 -53 -208 -53 l-110 0 0 260 0 260 110 0 c77 0 122 -5 148 -15z
m502 -25 l0 -40 -100 0 -100 0 0 -60 0 -59 78 -3 77 -3 3 -42 3 -43 -80 0 -81
0 0 -75 0 -75 105 0 105 0 0 -40 0 -40 -150 0 -150 0 0 260 0 260 145 0 145 0
0 -40z m320 -60 l0 -100 95 0 95 0 0 100 0 100 50 0 50 0 0 -260 0 -260 -50 0
-50 0 0 110 0 110 -95 0 -95 0 0 -110 0 -110 -45 0 -45 0 0 260 0 260 45 0 45
0 0 -100z m655 -140 c39 -129 75 -245 79 -258 7 -22 6 -23 -40 -20 l-48 3 -16
55 -16 55 -75 3 -76 3 -17 -61 -17 -60 -45 0 c-24 0 -44 3 -44 6 0 4 35 121
77 261 l77 254 44 -3 45 -3 72 -235z m607 119 l3 -121 76 118 75 119 58 3 57
3 -82 -122 -81 -122 23 -41 c13 -22 48 -84 80 -136 l56 -95 -51 -3 c-59 -4
-51 -13 -144 151 l-67 119 -3 -136 -3 -136 -44 0 -45 0 0 260 0 260 45 0 44 0
3 -121z m608 81 l0 -40 -100 0 -100 0 0 -60 0 -60 75 0 75 0 0 -45 0 -45 -75
0 -75 0 0 -75 0 -75 105 0 105 0 0 -40 0 -40 -155 0 -155 0 0 260 0 260 150 0
150 0 0 -40z m329 20 c47 -24 71 -70 71 -140 0 -56 -10 -81 -46 -120 l-23 -25
49 -108 49 -107 -52 0 -52 0 -41 93 c-39 91 -41 92 -77 95 l-37 3 0 -95 0 -96
-50 0 -50 0 0 260 0 260 110 0 c90 0 118 -4 149 -20z"/>
<path d="M7442 3389 c-22 -7 -36 -19 -43 -36 -12 -32 -4 -73 14 -72 26 1 198
36 203 42 10 9 -25 53 -52 65 -29 14 -76 14 -122 1z"/>
<path d="M7350 3131 c0 -14 34 -31 60 -31 18 0 21 -4 16 -27 -21 -110 -17
-152 9 -116 12 16 15 16 52 -10 47 -32 119 -38 130 -10 4 10 1 19 -7 21 -27 9
-100 85 -100 104 0 16 5 18 38 13 25 -4 33 -3 23 3 -22 16 -3 32 37 32 l37 1
-29 15 c-27 15 -31 15 -81 -10 -41 -21 -57 -25 -77 -17 -14 5 -28 15 -30 22
-5 15 -78 24 -78 10z"/>
<path d="M8068 3105 c-19 -11 -29 -26 -33 -50 -13 -85 -16 -107 -30 -220 -8
-66 -15 -125 -15 -132 0 -11 77 -29 86 -20 6 6 34 324 34 390 0 51 -2 53 -42
32z"/>
<path d="M7150 2957 c-33 -17 -67 -70 -86 -135 -21 -71 -15 -268 9 -324 13
-31 23 -39 68 -52 64 -19 145 -21 151 -3 8 19 -12 376 -23 434 -15 78 -61 109
-119 80z"/>
<path d="M7321 2881 c-11 -7 -13 -36 -7 -162 4 -85 9 -156 11 -157 2 -2 13 -1
24 3 19 6 21 14 21 78 0 109 6 111 89 35 81 -75 97 -77 168 -24 82 61 57 99
-29 42 -29 -20 -60 -36 -68 -36 -8 0 -43 27 -77 60 -53 49 -63 64 -63 93 0 22
-8 41 -23 55 -26 25 -27 25 -46 13z"/>
<path d="M2501 3027 c-78 -39 -96 -234 -28 -312 29 -34 91 -44 135 -21 50 26
67 68 67 166 0 62 -5 94 -18 117 -30 56 -101 78 -156 50z"/>
<path d="M2940 2860 l0 -182 65 4 c100 6 135 52 135 178 0 126 -35 172 -135
178 l-65 4 0 -182z"/>
<path d="M5970 2955 l0 -85 29 0 c53 0 89 19 101 55 23 69 -12 115 -87 115
l-43 0 0 -85z"/>
</g>
</svg>
